<?xml version="1.0" encoding="UTF-8"?>
<!-- Converted by misc2svg (http://www.network-science.de/tools/misc2svg/) -->
<svg xmlns="http://www.w3.org/2000/svg" xmlns:xlink="http://www.w3.org/1999/xlink" width="266pt" height="171pt" viewBox="0 0 266 171" version="1.1">
<defs>
<clipPath id="clip1">
  <path d="M 0 171.25 L 266.25 171.25 L 266.25 0 L 0 0 L 0 171.25 Z M 0 171.25 "/>
</clipPath>
</defs>
<g id="misc2svg">
<g clip-path="url(#clip1)" clip-rule="nonzero">
<path style=" stroke:none;fill-rule:nonzero;fill:rgb(0%,0%,0%);fill-opacity:1;" d="M 4.75 141.4375 L 2.625 142.6875 L 2.625 91.8125 L 4.75 93.0625 L 4.75 141.4375 Z M 4.75 141.4375 "/>
<path style=" stroke:none;fill-rule:nonzero;fill:rgb(0%,0%,0%);fill-opacity:1;" d="M 7.9375 139 L 10.0625 139 L 10.0625 95.5 L 7.9375 95.5 L 7.9375 139 Z M 7.9375 139 "/>
<path style=" stroke:none;fill-rule:nonzero;fill:rgb(0%,0%,0%);fill-opacity:1;" d="M 46.625 165.625 L 46.625 168.0625 L 2.625 142.6875 L 4.75 141.4375 L 46.625 165.625 Z M 46.625 165.625 "/>
<path style=" stroke:none;fill-rule:nonzero;fill:rgb(0%,0%,0%);fill-opacity:1;" d="M 88.5625 141.4375 L 90.6875 142.6875 L 46.625 168.0625 L 46.625 165.625 L 88.5625 141.4375 Z M 88.5625 141.4375 "/>
<path style=" stroke:none;fill-rule:nonzero;fill:rgb(0%,0%,0%);fill-opacity:1;" d="M 83.75 138.0625 L 84.8125 139.875 L 47.1875 161.625 L 46.125 159.8125 L 83.75 138.0625 Z M 83.75 138.0625 "/>
<path style=" stroke:none;fill-rule:nonzero;fill:rgb(0%,0%,0%);fill-opacity:1;" d="M 88.5625 93.0625 L 89.625 92.4375 L 90.6875 93.0625 L 90.6875 142.6875 L 88.5625 141.4375 L 88.5625 93.0625 Z M 88.5625 93.0625 "/>
<path style=" stroke:none;fill-rule:nonzero;fill:rgb(0%,0%,0%);fill-opacity:1;" d="M 46.625 68.875 L 46.625 66.375 L 89.625 91.1875 L 89.625 92.4375 L 88.5625 93.0625 L 46.625 68.875 Z M 46.625 68.875 "/>
<path style=" stroke:none;fill-rule:nonzero;fill:rgb(0%,0%,0%);fill-opacity:1;" d="M 46.125 74.6875 L 47.1875 72.875 L 84.8125 94.5625 L 83.75 96.4375 L 46.125 74.6875 Z M 46.125 74.6875 "/>
<path style=" stroke:none;fill-rule:nonzero;fill:rgb(0%,0%,0%);fill-opacity:1;" d="M 4.75 93.0625 L 2.625 91.8125 L 46.625 66.375 L 46.625 68.875 L 4.75 93.0625 Z M 4.75 93.0625 "/>
<path style=" stroke:none;fill-rule:nonzero;fill:rgb(0%,0%,0%);fill-opacity:1;" d="M 182.199219 145.460938 L 185.050781 146.183594 C 184.449219 148.515625 183.375 150.300781 181.828125 151.535156 C 180.273438 152.761719 178.382812 153.371094 176.144531 153.371094 C 173.839844 153.371094 171.953125 152.902344 170.5 151.964844 C 169.054688 151.015625 167.953125 149.648438 167.199219 147.863281 C 166.441406 146.066406 166.066406 144.148438 166.066406 142.101562 C 166.066406 139.867188 166.484375 137.914062 167.335938 136.242188 C 168.195312 134.578125 169.410156 133.3125 170.988281 132.453125 C 172.5625 131.59375 174.296875 131.164062 176.203125 131.164062 C 178.351562 131.164062 180.152344 131.710938 181.613281 132.804688 C 183.082031 133.898438 184.101562 135.4375 184.679688 137.414062 L 181.886719 138.078125 C 181.378906 136.515625 180.648438 135.378906 179.699219 134.660156 C 178.761719 133.945312 177.574219 133.585938 176.144531 133.585938 C 174.488281 133.585938 173.109375 133.984375 172.003906 134.777344 C 170.894531 135.574219 170.113281 136.632812 169.660156 137.960938 C 169.214844 139.289062 168.996094 140.664062 168.996094 142.082031 C 168.996094 143.90625 169.253906 145.5 169.777344 146.867188 C 170.308594 148.234375 171.132812 149.257812 172.257812 149.933594 C 173.390625 150.597656 174.605469 150.929688 175.910156 150.929688 C 177.511719 150.929688 178.859375 150.476562 179.953125 149.5625 C 181.054688 148.640625 181.808594 147.273438 182.199219 145.460938 Z M 182.199219 145.460938 "/>
<path style=" stroke:none;fill-rule:nonzero;fill:rgb(0%,0%,0%);fill-opacity:1;" d="M 188.625 153 L 188.625 131.515625 L 191.476562 131.515625 L 191.476562 140.34375 L 202.628906 140.34375 L 202.628906 131.515625 L 205.480469 131.515625 L 205.480469 153 L 202.628906 153 L 202.628906 142.882812 L 191.476562 142.882812 L 191.476562 153 L 188.625 153 Z M 188.625 153 "/>
<path style=" stroke:none;fill-rule:nonzero;fill:rgb(0%,0%,0%);fill-opacity:1;" d="M 208.894531 155.101562 L 210.886719 154.847656 C 211.105469 155.96875 211.492188 156.773438 212.039062 157.269531 C 212.585938 157.765625 213.25 158.011719 214.03125 158.011719 C 214.96875 158.011719 215.753906 157.691406 216.394531 157.054688 C 217.027344 156.402344 217.351562 155.601562 217.351562 154.652344 C 217.351562 153.742188 217.046875 152.992188 216.453125 152.40625 C 215.867188 151.808594 215.113281 151.507812 214.207031 151.507812 C 213.824219 151.507812 213.355469 151.585938 212.800781 151.742188 L 213.015625 150.003906 C 213.140625 150.015625 213.253906 150.023438 213.347656 150.023438 C 214.175781 150.023438 214.933594 149.800781 215.613281 149.359375 C 216.285156 148.917969 216.628906 148.238281 216.628906 147.328125 C 216.628906 146.597656 216.378906 146 215.886719 145.53125 C 215.386719 145.050781 214.757812 144.808594 213.992188 144.808594 C 213.21875 144.808594 212.574219 145.050781 212.058594 145.53125 C 211.550781 146.011719 211.222656 146.742188 211.082031 147.71875 L 209.109375 147.367188 C 209.34375 146.039062 209.890625 145.011719 210.75 144.28125 C 211.609375 143.550781 212.671875 143.1875 213.953125 143.1875 C 214.820312 143.1875 215.632812 143.375 216.375 143.753906 C 217.117188 144.132812 217.683594 144.644531 218.074219 145.296875 C 218.464844 145.949219 218.660156 146.636719 218.660156 147.367188 C 218.660156 148.070312 218.46875 148.707031 218.09375 149.28125 C 217.726562 149.839844 217.175781 150.289062 216.433594 150.628906 C 217.378906 150.851562 218.117188 151.3125 218.640625 152.015625 C 219.171875 152.707031 219.441406 153.566406 219.441406 154.59375 C 219.441406 156 218.921875 157.199219 217.898438 158.1875 C 216.882812 159.164062 215.59375 159.652344 214.03125 159.652344 C 212.609375 159.652344 211.433594 159.230469 210.496094 158.382812 C 209.566406 157.535156 209.035156 156.441406 208.894531 155.101562 Z M 208.894531 155.101562 "/>
<path style=" stroke:none;fill-rule:nonzero;fill:rgb(0%,0%,0%);fill-opacity:1;" d="M 174.5 93.0625 L 175.5625 92.4375 L 176.625 93.0625 L 176.625 128.3125 L 174.5 128.3125 L 174.5 93.0625 Z M 174.5 93.0625 "/>
<path style=" stroke:none;fill-rule:nonzero;fill:rgb(0%,0%,0%);fill-opacity:1;" d="M 132.5625 68.875 L 132.5625 66.375 L 175.5625 91.1875 L 175.5625 92.4375 L 174.5 93.0625 L 132.5625 68.875 Z M 132.5625 68.875 "/>
<path style=" stroke:none;fill-rule:nonzero;fill:rgb(0%,0%,0%);fill-opacity:1;" d="M 90.6875 93.0625 L 89.625 92.4375 L 89.625 91.1875 L 132.5625 66.375 L 132.5625 68.875 L 90.6875 93.0625 Z M 90.6875 93.0625 "/>
<path style=" stroke:none;fill-rule:nonzero;fill:rgb(0%,0%,0%);fill-opacity:1;" d="M 210.035156 78.4375 L 210.035156 56.953125 L 212.945312 56.953125 L 224.234375 73.828125 L 224.234375 56.953125 L 226.949219 56.953125 L 226.949219 78.4375 L 224.039062 78.4375 L 212.769531 61.5625 L 212.769531 78.4375 L 210.035156 78.4375 Z M 210.035156 78.4375 "/>
<path style=" stroke:none;fill-rule:nonzero;fill:rgb(0%,0%,0%);fill-opacity:1;" d="M 231.8125 78.4375 L 231.8125 56.953125 L 234.664062 56.953125 L 234.664062 65.78125 L 245.816406 65.78125 L 245.816406 56.953125 L 248.667969 56.953125 L 248.667969 78.4375 L 245.816406 78.4375 L 245.816406 68.320312 L 234.664062 68.320312 L 234.664062 78.4375 L 231.8125 78.4375 Z M 231.8125 78.4375 "/>
<path style=" stroke:none;fill-rule:nonzero;fill:rgb(0%,0%,0%);fill-opacity:1;" d="M 262.472656 82.898438 L 262.472656 84.792969 L 251.828125 84.792969 C 251.8125 84.316406 251.890625 83.855469 252.0625 83.425781 C 252.335938 82.699219 252.765625 81.980469 253.351562 81.277344 C 253.945312 80.574219 254.816406 79.765625 255.949219 78.835938 C 257.691406 77.40625 258.867188 76.273438 259.484375 75.4375 C 260.109375 74.59375 260.421875 73.796875 260.421875 73.054688 C 260.421875 72.265625 260.136719 71.601562 259.582031 71.0625 C 259.019531 70.53125 258.292969 70.261719 257.394531 70.261719 C 256.425781 70.261719 255.660156 70.550781 255.089844 71.121094 C 254.527344 71.699219 254.238281 72.484375 254.230469 73.484375 L 252.199219 73.269531 C 252.339844 71.761719 252.863281 70.609375 253.761719 69.8125 C 254.667969 69.023438 255.894531 68.621094 257.433594 68.621094 C 258.964844 68.621094 260.1875 69.050781 261.085938 69.910156 C 261.992188 70.769531 262.453125 71.835938 262.453125 73.09375 C 262.453125 73.734375 262.316406 74.363281 262.042969 74.988281 C 261.777344 75.613281 261.34375 76.273438 260.734375 76.960938 C 260.117188 77.65625 259.101562 78.597656 257.6875 79.792969 C 256.5 80.800781 255.738281 81.472656 255.402344 81.824219 C 255.058594 82.175781 254.785156 82.539062 254.582031 82.898438 L 262.472656 82.898438 Z M 262.472656 82.898438 "/>
<path style=" stroke:none;fill-rule:nonzero;fill:rgb(0%,0%,0%);fill-opacity:1;" d="M 205.125 74.125 L 206.1875 76 L 176.625 93.0625 L 175.5625 92.4375 L 175.5625 91.1875 L 205.125 74.125 Z M 205.125 74.125 "/>
<path style=" stroke:none;fill-rule:nonzero;fill:rgb(0%,0%,0%);fill-opacity:1;" d="M 122.382812 18.46875 C 122.382812 14.914062 123.339844 12.132812 125.253906 10.109375 C 127.167969 8.09375 129.640625 7.082031 132.675781 7.082031 C 134.652344 7.082031 136.4375 7.5625 138.027344 8.507812 C 139.628906 9.445312 140.84375 10.769531 141.679688 12.472656 C 142.507812 14.167969 142.929688 16.085938 142.929688 18.234375 C 142.929688 20.414062 142.484375 22.355469 141.601562 24.074219 C 140.726562 25.792969 139.484375 27.097656 137.871094 27.980469 C 136.253906 28.867188 134.515625 29.308594 132.65625 29.308594 C 130.632812 29.308594 128.828125 28.820312 127.226562 27.84375 C 125.632812 26.867188 124.433594 25.535156 123.613281 23.839844 C 122.792969 22.148438 122.382812 20.359375 122.382812 18.46875 Z M 125.3125 18.527344 C 125.3125 21.105469 126.007812 23.148438 127.402344 24.640625 C 128.792969 26.125 130.539062 26.867188 132.636719 26.867188 C 134.785156 26.867188 136.546875 26.121094 137.929688 24.621094 C 139.304688 23.113281 140 20.976562 140 18.214844 C 140 16.472656 139.695312 14.949219 139.101562 13.644531 C 138.515625 12.332031 137.648438 11.316406 136.503906 10.597656 C 135.371094 9.882812 134.101562 9.523438 132.695312 9.523438 C 130.671875 9.523438 128.9375 10.21875 127.480469 11.59375 C 126.035156 12.976562 125.3125 15.285156 125.3125 18.527344 Z M 125.3125 18.527344 "/>
<path style=" stroke:none;fill-rule:nonzero;fill:rgb(0%,0%,0%);fill-opacity:1;" d="M 128.875 69.1875 L 131 69.1875 L 131 32.1875 L 128.875 32.1875 L 128.875 69.1875 Z M 128.875 69.1875 "/>
<path style=" stroke:none;fill-rule:nonzero;fill:rgb(0%,0%,0%);fill-opacity:1;" d="M 134.1875 69.1875 L 136.3125 69.1875 L 136.3125 32.1875 L 134.1875 32.1875 L 134.1875 69.1875 Z M 134.1875 69.1875 "/>
<path style=" stroke:none;fill-rule:nonzero;fill:rgb(0%,0%,0%);fill-opacity:1;" d="M 179.964844 55.25 L 179.964844 33.765625 L 182.816406 33.765625 L 182.816406 42.59375 L 193.96875 42.59375 L 193.96875 33.765625 L 196.820312 33.765625 L 196.820312 55.25 L 193.96875 55.25 L 193.96875 45.132812 L 182.816406 45.132812 L 182.816406 55.25 L 179.964844 55.25 Z M 179.964844 55.25 "/>
<path style=" stroke:none;fill-rule:nonzero;fill:rgb(0%,0%,0%);fill-opacity:1;" d="M 179.8125 58.1875 L 189 60.625 L 188 63.0625 L 179.4375 60.8125 L 179.8125 58.1875 Z M 179.8125 58.1875 "/>
<path style=" stroke:none;fill-rule:nonzero;fill:rgb(0%,0%,0%);fill-opacity:1;" d="M 179.0625 63.4375 L 187 65.5625 L 186 68 L 178.75 66.0625 L 179.0625 63.4375 Z M 179.0625 63.4375 "/>
<path style=" stroke:none;fill-rule:nonzero;fill:rgb(0%,0%,0%);fill-opacity:1;" d="M 178.375 68.6875 L 185 70.4375 L 184 72.875 L 178 71.3125 L 178.375 68.6875 Z M 178.375 68.6875 "/>
<path style=" stroke:none;fill-rule:nonzero;fill:rgb(0%,0%,0%);fill-opacity:1;" d="M 177.6875 73.9375 L 183 75.3125 L 182 77.8125 L 177.3125 76.5625 L 177.6875 73.9375 Z M 177.6875 73.9375 "/>
<path style=" stroke:none;fill-rule:nonzero;fill:rgb(0%,0%,0%);fill-opacity:1;" d="M 176.9375 79.1875 L 181 80.25 L 179.9375 82.6875 L 176.625 81.8125 L 176.9375 79.1875 Z M 176.9375 79.1875 "/>
<path style=" stroke:none;fill-rule:nonzero;fill:rgb(0%,0%,0%);fill-opacity:1;" d="M 176.25 84.375 L 178.9375 85.125 L 177.9375 87.5625 L 175.875 87 L 176.25 84.375 Z M 176.25 84.375 "/>
</g>
</g>
</svg>
